<?xml version="1.0" encoding="UTF-8"?>
<svg id="Ebene_2" data-name="Ebene 2" xmlns="http://www.w3.org/2000/svg" viewBox="0 0 40 40">
  <defs>
    <style>
      .cls-1 {
        fill: #5b7c99;
        opacity: .2;
      }

      .cls-2 {
        fill: none;
        stroke: #7a9ab8;
        stroke-linecap: round;
        stroke-linejoin: round;
        stroke-width: 2.5px;
      }

      .cls-3 {
        fill: #7a9ab8;
      }
    </style>
  </defs>
  <g id="Ebene_1-2" data-name="Ebene 1">
    <g>
      <g>
        <rect class="cls-1" x="1" y="1" width="38" height="38" rx="7" ry="7"/>
        <path class="cls-3" d="M32,2c3.31,0,6,2.69,6,6v24c0,3.31-2.69,6-6,6H8c-3.31,0-6-2.69-6-6V8c0-3.31,2.69-6,6-6h24M32,0H8C3.58,0,0,3.58,0,8v24c0,4.42,3.58,8,8,8h24c4.42,0,8-3.58,8-8V8c0-4.42-3.58-8-8-8h0Z"/>
      </g>
      <g>
        <path class="cls-2" d="M15,12l-5,8,5,8"/>
        <path class="cls-2" d="M25,12l5,8-5,8"/>
        <path class="cls-2" d="M22,12l-4,16"/>
      </g>
    </g>
  </g>
</svg>